<?xml version="1.0" standalone="no"?>

<svg version="1.0" xmlns="http://www.w3.org/2000/svg"
 width="1025.000000pt" height="975.000000pt" viewBox="0 0 1025.000000 975.000000"
 preserveAspectRatio="xMidYMid meet">

<g transform="translate(0.000000,975.000000) scale(0.100000,-0.100000)"
fill="#f1f1f1" stroke="none">
<path d="M3475 9684 c-55 -7 -134 -18 -175 -23 -311 -42 -672 -164 -953 -323
-108 -61 -324 -227 -397 -305 -213 -226 -298 -341 -408 -555 -68 -134 -123
-266 -146 -353 -134 -512 -201 -942 -221 -1425 -6 -148 -33 -403 -60 -565 -8
-49 -26 -160 -40 -245 -38 -229 -55 -382 -55 -506 0 -101 3 -119 29 -183 36
-88 57 -117 185 -245 127 -128 324 -277 449 -337 27 -13 47 -30 47 -39 0 -9
-16 -32 -36 -51 -94 -91 -140 -227 -131 -389 6 -111 30 -180 90 -252 21 -26
36 -51 32 -57 -3 -6 -29 -18 -58 -26 -74 -22 -183 -107 -224 -175 -60 -100
-76 -154 -77 -270 -1 -99 1 -109 31 -170 17 -36 43 -80 57 -99 14 -19 23 -38
20 -42 -3 -5 -22 -13 -44 -19 -39 -10 -123 -74 -158 -120 -33 -42 -102 -176
-115 -222 -8 -29 -10 -71 -6 -130 9 -113 54 -204 141 -282 32 -29 58 -55 58
-58 0 -5 -77 -103 -235 -299 -56 -68 -120 -151 -143 -184 -23 -33 -74 -104
-112 -157 -39 -54 -70 -100 -70 -102 0 -2 -25 -44 -56 -92 -30 -49 -80 -137
-110 -197 -30 -59 -74 -140 -97 -180 -78 -133 -257 -506 -315 -657 -22 -58
-61 -158 -86 -223 -25 -65 -46 -120 -46 -122 0 -3 6 -5 14 -5 8 0 33 54 66
143 29 78 66 174 82 212 17 39 46 107 64 152 18 46 53 122 77 170 25 49 58
115 74 148 61 124 214 405 288 529 99 168 149 241 294 433 163 217 198 261
241 308 20 22 51 56 68 75 l30 34 63 -22 c35 -12 77 -22 92 -22 15 0 30 -6 33
-14 3 -7 -13 -55 -34 -107 -106 -252 -146 -374 -222 -669 -10 -41 -28 -111
-40 -155 -12 -44 -37 -168 -55 -275 -19 -107 -50 -283 -69 -390 -19 -107 -37
-216 -41 -242 -5 -37 -17 -60 -55 -105 -52 -61 -76 -125 -65 -174 5 -20 13
-29 26 -29 16 0 19 5 14 23 -4 12 -9 30 -11 39 -6 22 25 86 67 137 19 23 75
75 126 117 95 77 193 181 232 246 18 30 28 37 59 40 l37 3 -57 18 c-31 9 -70
29 -87 43 -40 33 -40 22 -1 -19 58 -61 55 -68 -71 -201 -75 -79 -138 -126
-170 -126 -17 0 -4 142 26 300 13 69 32 175 41 235 9 61 21 118 26 128 14 27
31 21 24 -8 -11 -43 6 -50 20 -9 9 27 11 48 5 66 -8 22 -4 32 25 66 41 48 121
103 226 154 88 44 115 46 152 17 33 -26 46 -19 17 10 -30 30 -35 61 -27 195
12 215 77 517 156 721 21 55 41 110 45 123 5 17 14 22 40 22 27 0 37 -6 53
-33 23 -40 87 -62 156 -55 40 5 50 1 96 -33 56 -42 105 -54 215 -53 53 0 81 6
115 24 52 27 40 39 -16 15 -40 -17 -163 -22 -228 -10 -20 4 -55 24 -80 46 -43
38 -46 39 -100 33 -73 -9 -128 14 -151 62 -14 30 -21 34 -53 34 -20 0 -43 4
-51 9 -31 20 18 101 82 136 l34 18 108 -42 c160 -63 471 -145 667 -176 48 -7
111 -18 140 -24 50 -10 134 -21 423 -56 66 -8 204 -17 307 -21 l187 -6 6 -37
c4 -20 8 -46 11 -58 2 -13 -6 -33 -22 -52 -32 -39 -72 -41 -132 -6 -45 26 -52
25 -87 -6 -12 -10 -39 -25 -60 -33 -30 -11 -34 -15 -17 -15 12 -1 40 8 62 19
47 24 66 25 116 4 27 -11 52 -14 91 -9 40 5 54 3 58 -7 11 -33 35 -326 35
-434 0 -203 -29 -627 -43 -641 -7 -8 -42 -19 -78 -25 -42 -8 -55 -14 -38 -16
15 -2 56 4 93 12 103 24 132 22 167 -16 33 -37 76 -141 85 -210 9 -62 -10
-131 -49 -185 -46 -65 -86 -86 -177 -91 -83 -5 -129 10 -162 52 l-18 21 -34
-37 c-32 -35 -39 -38 -89 -38 -42 0 -58 5 -73 21 -37 41 -52 42 -92 11 -44
-34 -139 -67 -239 -82 -127 -20 -240 17 -324 104 -24 25 -48 46 -53 46 -6 0
-20 -10 -34 -22 -50 -48 -146 -20 -173 50 -15 38 -36 37 -92 -6 -73 -56 -104
-69 -193 -86 l-79 -14 56 -1 c67 -1 185 42 228 83 15 15 34 26 42 26 8 0 30
-20 49 -45 42 -56 75 -64 148 -36 l52 21 27 -30 c14 -16 52 -47 84 -67 l57
-37 17 -86 c24 -120 67 -244 86 -248 13 -2 7 23 -28 129 -23 73 -43 146 -43
163 l0 31 108 1 c136 1 242 27 323 80 25 16 28 16 60 -8 19 -14 41 -28 50 -31
17 -6 29 -65 29 -142 0 -44 13 -82 42 -125 9 -14 18 -42 20 -63 3 -49 14 -47
21 5 5 36 2 45 -22 69 -31 31 -41 70 -41 168 0 64 0 64 47 108 53 48 67 52 98
23 16 -15 47 -24 116 -33 l94 -13 7 -84 c3 -47 9 -129 13 -183 4 -53 11 -97
17 -97 5 0 7 12 4 27 -3 16 -7 104 -9 196 l-2 169 30 24 c16 13 33 20 37 16 4
-4 12 -89 18 -187 12 -191 18 -250 26 -242 3 3 1 95 -5 204 -12 211 -8 255 30
358 19 54 20 67 11 124 -7 41 -28 97 -56 153 -25 49 -46 93 -46 98 0 5 12 13
26 16 53 14 317 176 459 284 69 52 105 62 140 36 21 -15 28 -65 60 -401 17
-190 37 -402 60 -640 17 -176 29 -235 49 -235 11 0 11 9 1 48 -25 96 -109 954
-110 1117 0 64 3 80 15 80 26 0 37 -46 54 -220 15 -158 65 -561 101 -806 19
-130 45 -213 69 -217 15 -3 16 0 7 16 -20 38 -39 108 -45 167 -4 33 -13 105
-21 160 -43 294 -66 486 -86 708 -14 156 -9 173 37 141 26 -19 57 -38 61 -40
2 0 7 -22 12 -49 8 -42 7 -48 -10 -52 -10 -3 -19 -9 -19 -14 0 -17 44 -9 86
16 75 44 118 15 154 -102 24 -77 26 -160 5 -210 l-15 -36 -50 7 c-56 8 -89 -6
-126 -53 -25 -31 -39 -71 -26 -71 5 0 12 9 15 21 8 32 39 20 49 -20 12 -46 7
-64 -22 -72 -23 -6 -22 -7 12 -14 21 -4 45 -4 54 -1 14 5 14 8 0 28 -17 23
-22 123 -8 145 4 6 29 11 61 10 43 -2 56 2 65 17 41 69 42 69 66 -62 13 -67
21 -125 18 -127 -3 -3 -22 2 -43 11 -25 10 -50 13 -76 9 -57 -10 -48 -24 18
-27 55 -3 58 -5 93 -50 53 -71 75 -145 75 -255 0 -85 -2 -94 -25 -118 -22 -22
-36 -25 -129 -31 -88 -6 -107 -11 -130 -30 -20 -18 -22 -23 -10 -24 9 0 22 7
29 15 16 19 50 19 50 0 0 -8 7 -15 15 -15 8 0 15 6 15 14 0 9 21 15 69 19 83
7 105 17 126 58 9 16 20 27 25 24 5 -3 17 -30 26 -60 11 -33 23 -55 32 -55 8
0 12 6 9 13 -21 55 -77 240 -77 255 0 10 -7 42 -15 72 -54 195 -94 430 -102
587 l-6 123 27 2 c14 1 34 2 43 2 13 1 20 -17 34 -89 10 -49 18 -98 19 -108 0
-23 47 -122 63 -134 27 -20 90 -35 123 -28 20 3 46 19 61 36 36 40 50 37 63
-13 59 -236 182 -560 228 -601 11 -10 70 -30 132 -45 75 -17 119 -33 136 -48
23 -22 24 -22 24 -3 0 24 -65 55 -162 75 -104 22 -116 30 -155 109 -42 82 -97
223 -123 315 -11 36 -28 96 -39 134 -11 38 -18 73 -15 78 6 9 57 3 112 -14 40
-12 153 19 213 59 33 22 41 24 55 12 15 -12 16 -11 10 17 -5 23 0 44 24 88 19
36 30 72 29 95 -1 35 -1 35 -15 -15 -21 -77 -61 -142 -106 -170 -135 -86 -220
-85 -390 4 -4 2 -16 -14 -27 -35 -25 -50 -57 -67 -109 -58 -30 5 -48 15 -66
40 -46 60 -94 327 -65 362 8 9 39 34 69 56 55 41 269 221 345 290 22 20 44 37
49 37 9 0 37 -30 124 -130 17 -19 34 -32 38 -28 8 9 -58 97 -110 147 -34 33
-35 36 -19 53 25 28 49 22 142 -33 108 -65 110 -66 88 -43 -9 10 -47 37 -83
59 -107 64 -107 65 -21 172 152 192 178 226 218 289 30 46 48 64 63 64 12 0
57 -20 100 -45 86 -49 89 -50 84 -34 -2 6 -40 30 -83 54 -56 30 -80 48 -80 61
0 28 29 29 105 4 38 -12 75 -20 82 -18 7 3 -24 17 -69 32 -46 15 -85 31 -88
35 -2 5 42 100 98 212 135 270 161 328 191 429 13 47 34 114 45 150 49 159 74
291 130 685 37 258 61 471 76 685 7 104 -10 295 -31 345 -19 46 -63 116 -83
133 -33 27 -163 9 -196 -28 -10 -11 -26 -20 -37 -20 -15 0 -18 8 -18 53 0 70
14 115 47 149 68 71 179 32 200 -69 l8 -41 29 23 30 24 -25 11 c-14 7 -34 25
-43 41 -23 39 -51 56 -106 64 -37 5 -51 2 -79 -17 -52 -35 -74 -87 -79 -185
-4 -77 -6 -84 -27 -89 -42 -10 -69 0 -92 36 -32 52 -51 70 -70 70 -13 -1 -11
-5 8 -15 39 -21 50 -63 34 -125 -8 -29 -25 -69 -39 -90 l-25 -38 34 -35 c60
-62 56 -121 -12 -173 -32 -24 -33 -27 -19 -43 20 -22 20 -45 1 -61 -22 -18
-19 -27 20 -74 32 -39 35 -49 35 -108 0 -51 -5 -72 -23 -99 -20 -30 -75 -77
-122 -104 -16 -10 -16 -13 6 -49 21 -35 21 -42 10 -85 -7 -25 -25 -60 -42 -76
-16 -17 -29 -37 -29 -43 0 -23 43 -98 48 -84 2 8 -4 29 -14 47 l-18 33 32 36
c45 51 58 103 42 162 -11 40 -11 49 0 52 22 8 88 72 109 105 39 65 36 163 -8
218 -14 18 -18 39 -17 85 2 54 6 66 34 98 49 56 45 97 -18 186 -8 11 -2 31 26
84 l37 68 63 -6 c62 -6 64 -6 91 25 67 76 79 82 158 77 43 -3 52 -7 72 -36 63
-95 90 -279 73 -501 -22 -289 -97 -849 -140 -1046 -55 -258 -180 -620 -271
-790 -70 -128 -120 -218 -156 -275 -66 -107 -156 -245 -162 -250 -3 -3 -26
-32 -51 -65 -61 -82 -95 -120 -235 -263 -141 -145 -380 -352 -407 -352 -18 0
-44 64 -137 341 -169 505 -212 641 -209 663 2 17 13 22 53 28 58 8 99 47 109
104 10 50 28 64 73 53 23 -5 53 -4 74 1 43 12 109 79 109 113 0 32 10 42 62
65 53 23 64 39 81 122 l12 61 69 24 c139 48 180 97 181 213 1 59 2 64 36 92
20 16 39 42 42 57 4 22 19 35 63 57 84 44 153 138 142 193 -3 11 -10 -1 -21
-33 -23 -66 -96 -134 -163 -150 -43 -10 -54 -22 -47 -54 4 -25 0 -32 -36 -57
l-41 -28 6 -61 c10 -98 -19 -140 -131 -195 -52 -25 -125 -39 -125 -24 0 3 47
72 105 153 133 187 220 348 285 527 10 28 38 102 63 165 24 63 49 144 56 180
17 95 50 626 51 809 0 96 16 144 58 179 14 10 13 12 -6 12 -14 0 -30 -13 -46
-39 -14 -22 -30 -42 -35 -46 -13 -7 -162 23 -175 36 -13 12 1 24 46 38 56 18
147 82 205 143 58 63 83 127 83 217 0 54 -32 266 -66 439 -16 80 -16 84 5 150
37 119 52 212 67 442 19 290 11 579 -22 820 -13 96 -24 203 -24 236 0 56 -20
168 -69 384 -38 168 -150 483 -223 627 -38 76 -83 161 -100 188 -57 91 -160
250 -179 275 -11 14 -40 52 -65 85 -49 65 -171 202 -218 244 -17 14 -64 58
-106 96 -100 92 -217 181 -288 218 -183 96 -299 155 -317 160 -11 3 -69 26
-130 52 -118 50 -210 72 -454 111 -177 27 -349 30 -516 8z m385 -14 c212 -19
456 -71 607 -130 108 -43 402 -192 484 -246 37 -25 107 -80 155 -122 48 -42
112 -98 143 -124 31 -26 92 -90 136 -144 44 -54 104 -126 133 -160 28 -35 52
-65 52 -68 0 -2 29 -46 63 -97 35 -52 83 -130 107 -174 23 -44 62 -114 86
-155 101 -176 212 -531 258 -826 28 -177 18 -178 -42 -4 -59 172 -121 317
-210 490 -106 207 -108 212 -241 390 -189 254 -549 607 -771 755 -90 60 -287
165 -309 165 -6 0 -21 14 -33 31 -31 42 -59 55 -163 73 -135 23 -160 24 -285
10 -70 -7 -176 -10 -270 -7 -225 8 -360 -11 -492 -70 -18 -9 -51 -21 -73 -27
-133 -39 -391 -162 -520 -248 -314 -207 -451 -342 -594 -585 -93 -157 -120
-241 -190 -592 -55 -278 -61 -320 -72 -575 -11 -251 -6 -460 18 -783 17 -218
17 -219 -5 -340 -31 -169 -58 -400 -72 -607 -10 -149 -10 -202 5 -360 18 -212
25 -252 44 -258 10 -3 12 4 8 34 -3 22 -14 116 -23 209 -20 203 -11 425 31
745 28 219 32 233 46 208 17 -30 13 -111 -9 -168 -37 -96 -28 -247 21 -370 30
-77 44 -98 100 -156 l49 -51 95 -329 c119 -411 143 -500 143 -525 0 -22 -34
-25 -144 -9 -141 21 -275 101 -434 259 -142 142 -208 251 -277 456 l-47 140 6
225 c3 132 11 253 19 293 8 37 11 70 6 73 -5 2 -10 -5 -13 -18 -2 -13 -9 -52
-16 -88 -18 -101 -30 -295 -24 -400 14 -226 147 -508 333 -705 64 -68 71 -80
39 -72 -25 7 -128 64 -178 100 -32 22 -221 164 -267 199 -48 37 -176 197 -204
255 -44 90 -39 310 17 663 43 268 63 404 66 440 2 23 8 35 18 35 12 0 16 -26
20 -150 9 -241 13 -111 11 330 -2 320 1 435 13 525 8 63 20 160 26 215 14 122
59 366 105 580 108 490 203 698 476 1035 133 164 261 277 473 417 145 95 322
179 501 237 44 14 107 35 139 46 97 33 420 96 561 109 130 12 234 12 365 1z
m11 -504 c78 -12 85 -16 279 -142 136 -88 249 -88 286 2 13 31 18 34 55 34 77
0 311 -108 488 -225 188 -124 453 -369 560 -518 290 -403 429 -685 551 -1117
51 -181 69 -294 80 -519 19 -367 -10 -775 -66 -928 -15 -41 -18 -43 -55 -43
-46 0 -46 0 -24 135 17 104 21 493 6 620 -5 44 -13 116 -17 160 -8 91 -21 74
-23 -30 -4 -164 -106 -604 -161 -694 -20 -32 -23 -33 -66 -27 -76 10 -87 21
-80 75 19 136 19 154 5 149 -7 -2 -21 -30 -30 -62 -10 -31 -23 -63 -29 -71
-17 -21 -59 -18 -98 5 -29 18 -33 25 -27 48 8 32 21 42 58 42 37 0 56 34 106
185 82 249 111 474 105 805 -4 226 -16 365 -41 490 -15 75 -42 130 -29 60 34
-195 39 -254 43 -495 4 -221 1 -287 -16 -440 -12 -99 -34 -229 -50 -290 -35
-132 -85 -266 -106 -281 -11 -8 -35 -7 -91 5 l-76 16 5 70 c32 413 35 562 21
830 -22 417 -47 616 -110 870 -81 322 -201 665 -234 665 -16 0 -12 -17 16 -72
68 -134 186 -506 228 -718 43 -222 57 -348 81 -759 11 -189 12 -286 4 -425 -5
-99 -12 -182 -15 -185 -2 -2 -15 6 -29 19 -17 16 -22 27 -15 34 17 17 11 39
-19 65 -28 25 -32 36 -60 206 -67 407 -115 629 -172 799 -17 51 -20 72 -12 85
8 13 5 23 -13 44 -13 16 -24 35 -24 43 0 16 -65 253 -82 299 -41 112 -69 131
-32 23 34 -99 84 -292 84 -323 0 -17 -5 -25 -17 -25 -14 0 -12 -5 9 -23 23
-18 33 -42 54 -127 34 -137 83 -435 94 -575 13 -155 18 -371 10 -384 -4 -8
-37 -8 -116 -1 -60 6 -137 13 -171 16 l-63 6 0 72 c0 42 5 77 12 84 9 9 8 16
-5 30 -11 12 -22 57 -32 128 -29 205 -79 454 -122 599 -19 66 -35 138 -36 160
l-2 40 85 5 85 5 -52 8 c-28 5 -66 7 -85 6 -18 -2 -39 0 -45 4 -7 4 -35 78
-64 165 -28 86 -59 173 -69 192 -10 19 -31 105 -48 190 -31 154 -114 434 -132
445 -14 9 -14 9 34 -153 24 -81 54 -197 65 -257 12 -61 26 -128 31 -150 16
-74 49 -290 56 -372 4 -57 3 -87 -5 -97 -9 -10 -8 -15 3 -19 26 -10 52 -249
67 -624 13 -291 12 -298 -34 -306 -23 -4 -19 -7 29 -22 14 -5 16 -16 10 -82
-5 -50 -14 -86 -26 -103 -17 -24 -17 -28 -4 -42 18 -18 10 -42 -20 -61 -23
-16 -120 -29 -143 -20 -10 4 -13 38 -13 147 0 77 -4 193 -9 256 -5 63 -13 179
-16 258 -4 79 -9 142 -10 140 -2 -2 -8 -79 -14 -173 -16 -251 -30 -401 -46
-469 -19 -88 -28 -165 -16 -145 5 8 22 87 36 175 25 151 38 195 49 163 3 -8 6
-89 8 -181 2 -92 8 -172 13 -177 6 -5 52 -14 102 -20 72 -9 97 -9 112 1 33 20
35 2 8 -61 -39 -89 -46 -208 -19 -298 41 -133 108 -190 251 -212 93 -15 146
-7 236 34 80 37 108 69 151 175 29 71 34 164 14 238 -10 37 -30 59 -30 32 0
-18 -64 -50 -101 -50 -75 0 -118 90 -73 153 17 25 23 27 64 22 25 -3 64 -7 88
-9 23 -1 55 -12 70 -23 34 -24 61 -100 62 -170 0 -71 17 -67 25 5 11 93 19
117 40 117 27 0 34 -35 28 -136 l-6 -86 44 -15 c30 -10 45 -21 47 -35 2 -11
-11 -62 -27 -114 -51 -158 -70 -256 -86 -449 -19 -223 -36 -308 -75 -377 -59
-103 -246 -257 -405 -333 -89 -43 -309 -121 -425 -150 -315 -79 -760 -73
-1047 14 -43 13 -112 34 -153 46 -83 25 -337 152 -415 208 -27 19 -89 64 -136
100 -86 63 -87 65 -98 121 -9 48 -28 276 -46 556 -16 253 -24 474 -17 498 4
15 21 36 37 47 16 11 39 36 50 56 11 20 25 37 30 38 6 0 20 -36 32 -82 37
-144 63 -147 63 -7 0 99 9 117 47 90 17 -12 17 -16 3 -47 -19 -42 -19 -245 0
-303 7 -22 37 -65 68 -97 45 -47 69 -63 133 -88 86 -33 131 -36 226 -16 88 19
165 82 202 167 47 105 61 271 30 332 -13 23 -26 22 -61 -8 -38 -32 -87 -33
-115 -2 -25 26 -30 50 -19 94 9 41 26 46 81 25 40 -14 47 -15 55 -2 8 12 18
10 64 -13 51 -26 57 -27 72 -13 9 10 33 16 59 16 24 0 51 3 60 6 17 7 45 54
45 76 0 7 -8 -3 -18 -22 -16 -33 -20 -35 -74 -38 -33 -2 -58 1 -58 7 0 5 5 11
11 13 6 2 -7 16 -30 31 -42 28 -50 44 -29 65 9 9 8 16 -4 29 -14 16 -15 31 -6
128 6 62 12 384 13 740 2 347 6 744 10 883 5 169 4 252 -3 252 -6 0 -11 -98
-14 -272 -3 -180 -11 -323 -23 -420 l-19 -147 -55 -6 c-245 -25 -348 -48 -463
-105 -26 -13 -51 -21 -55 -17 -4 4 1 58 12 120 24 154 14 170 -14 22 -13 -66
-30 -133 -38 -148 -9 -18 -16 -66 -18 -125 -1 -54 -6 -106 -10 -117 -6 -15 -5
-17 4 -9 7 6 19 51 27 100 9 49 21 98 29 109 19 30 150 92 247 117 61 16 115
22 203 22 l120 1 -3 -50 c-9 -167 -129 -781 -171 -881 -7 -16 -27 -25 -90 -38
-83 -18 -129 -45 -55 -33 21 4 56 10 76 13 49 8 56 -9 29 -70 -19 -45 -21 -46
-64 -46 -24 0 -72 -3 -106 -7 l-63 -6 8 171 c4 114 3 172 -3 172 -6 0 -13 -15
-17 -32 -23 -120 -70 -301 -81 -312 -20 -19 -154 -51 -166 -39 -6 6 -6 35 1
79 77 520 78 526 61 508 -5 -5 -19 -67 -30 -139 -19 -116 -94 -433 -108 -460
-3 -5 -15 -20 -26 -32 -11 -13 -15 -23 -9 -23 22 0 12 -39 -19 -75 -24 -27
-29 -39 -20 -48 6 -6 11 -21 11 -33 0 -27 -40 -45 -106 -47 -47 -2 -48 -1 -57
33 -13 50 -12 397 2 580 28 376 94 754 206 1185 66 252 122 442 164 550 34 87
35 94 22 79 -16 -16 -86 -202 -125 -330 -100 -331 -214 -864 -266 -1239 -33
-239 -50 -709 -30 -816 12 -64 19 -72 62 -73 l33 -1 6 -71 c4 -39 10 -161 14
-270 8 -238 48 -739 75 -954 11 -85 27 -227 35 -315 8 -88 19 -191 24 -230 6
-38 13 -97 16 -130 3 -33 17 -124 31 -203 14 -78 22 -146 19 -151 -8 -14 -86
-24 -97 -13 -6 6 -14 32 -20 59 -22 115 -58 324 -68 398 -6 44 -15 105 -20
135 -17 94 -59 431 -65 520 -12 179 -17 212 -27 202 -19 -19 8 -471 42 -707
17 -115 20 -143 24 -205 2 -30 11 -75 20 -99 16 -42 56 -228 56 -258 0 -12 -7
-14 -27 -8 -46 11 -68 30 -79 71 -68 236 -120 409 -154 507 -36 108 -122 389
-140 462 -4 17 -22 80 -39 140 -89 313 -162 607 -217 878 -94 468 -118 1252
-50 1657 35 208 71 350 111 444 40 92 132 249 167 286 13 14 41 47 63 75 215
268 515 484 840 603 101 37 138 46 172 43 7 -1 24 -22 37 -48 49 -96 120 -144
175 -121 47 20 213 167 262 231 49 64 47 64 170 43z m697 -1356 c30 -96 29
-117 -5 -106 -15 5 -21 23 -31 98 -21 156 -11 158 36 8z m64 -210 c67 -249
159 -735 154 -820 -1 -24 -3 -25 -93 -28 l-93 -3 0 183 c-1 170 -9 289 -41
589 -14 134 -11 152 28 147 25 -3 30 -10 45 -68z m-1132 -348 c-1 -266 -10
-515 -26 -654 l-7 -58 -61 1 c-33 0 -79 3 -101 7 -34 6 -40 11 -43 34 -2 14 4
42 12 62 14 35 17 36 65 36 60 0 68 16 14 26 -21 4 -41 8 -44 10 -8 4 -4 21
40 185 37 138 71 302 101 489 25 157 27 163 40 155 6 -4 10 -111 10 -293z
m1715 -292 c29 -136 65 -350 65 -390 0 -39 -1 -41 -27 -38 -26 3 -28 7 -35 63
-4 33 -12 144 -18 246 -6 103 -15 202 -20 222 -4 20 -5 39 -1 42 3 4 10 -13
14 -37 4 -23 14 -72 22 -108z m-428 -256 c9 -13 13 -40 11 -84 l-3 -65 -60 -6
c-33 -4 -77 -10 -97 -14 l-38 -7 0 94 c0 52 3 98 8 102 4 5 43 6 86 4 63 -4
82 -9 93 -24z m-1802 -124 c-4 -39 -4 -40 -15 -40 -11 0 -13 49 -4 75 10 24
23 -1 19 -35z m-255 -52 c0 -7 -5 -20 -10 -28 -8 -12 -10 -9 -10 13 0 15 5 27
10 27 6 0 10 -6 10 -12z m3284 -140 c3 -13 6 -121 6 -241 0 -210 -10 -336 -30
-385 -14 -32 2 -58 43 -71 19 -7 39 -22 45 -34 5 -12 26 -108 46 -212 37 -194
45 -309 26 -376 -13 -46 -79 -135 -133 -178 -42 -33 -146 -85 -155 -77 -2 3
12 42 31 88 23 53 38 106 42 148 6 73 1 66 -39 -58 -28 -86 -82 -182 -103
-182 -17 0 -16 17 2 93 7 34 32 156 55 270 22 114 46 220 52 235 11 27 11 27
24 -23 13 -48 14 -45 9 65 -3 85 1 144 15 225 27 155 46 469 34 571 -9 79 -1
164 15 164 5 0 11 -10 15 -22z m-614 -38 c0 -5 -2 -10 -4 -10 -3 0 -8 5 -11
10 -3 6 -1 10 4 10 6 0 11 -4 11 -10z m-552 -152 c-2 -40 -7 -73 -13 -73 -5 0
-11 33 -13 73 -2 60 0 72 13 72 13 0 15 -12 13 -72z m-1670 -54 c-2 -30 -7
-54 -13 -54 -13 -1 -30 133 -20 157 13 31 36 -41 33 -103z m2782 -105 c0 -129
-18 -291 -45 -399 -7 -30 -23 -113 -35 -185 -22 -134 -80 -401 -131 -610 -64
-256 -133 -626 -164 -875 -21 -164 -26 -180 -60 -180 -14 0 -25 3 -25 8 0 4
-6 68 -14 142 -9 89 -12 210 -8 358 3 157 1 227 -7 235 -15 15 -23 4 -31 -45
-8 -45 -32 -166 -55 -278 -8 -36 -19 -83 -26 -105 -6 -22 -13 -57 -16 -78 -3
-20 -9 -40 -14 -43 -5 -3 -9 -14 -9 -25 0 -16 -6 -20 -27 -17 -26 3 -28 6 -31
58 -1 30 -7 91 -13 135 -22 161 -4 840 24 892 8 16 28 53 45 83 39 71 58 168
72 360 16 224 68 452 105 466 6 3 33 -4 59 -16 37 -15 52 -17 68 -9 16 8 22 7
34 -8 7 -10 14 -21 14 -24 0 -14 55 -29 105 -29 46 0 57 4 70 24 18 27 80 207
90 260 14 74 25 32 25 -95z m-887 -14 c67 -105 36 -162 -109 -199 -81 -21
-164 -7 -257 41 -113 60 -134 108 -73 169 54 54 104 43 141 -29 10 -20 18 -22
79 -22 l69 0 45 52 c51 59 61 58 105 -12z m-2041 4 c12 -6 32 -24 46 -40 22
-27 29 -29 92 -29 61 0 71 3 88 25 25 32 35 31 65 -5 32 -38 44 -103 24 -133
-24 -37 -131 -77 -205 -77 -45 0 -123 27 -175 60 -42 26 -48 34 -43 55 3 13 2
27 -4 30 -14 9 -12 78 3 97 22 28 73 36 109 17z m-1104 -222 c36 -157 61 -266
78 -335 15 -66 13 -85 -11 -76 -24 9 -92 127 -111 190 -31 104 -22 324 14 324
4 0 18 -46 30 -103z m766 -827 c152 -113 196 -145 236 -168 58 -33 80 -52 80
-68 0 -8 -24 -38 -53 -67 -88 -87 -233 -157 -262 -125 -9 10 -66 404 -65 451
0 15 24 6 64 -23z m2521 -184 l-8 -166 -24 0 c-28 0 -198 83 -230 113 -28 25
-24 31 35 61 26 14 67 43 92 65 25 22 50 41 55 41 6 0 26 14 45 29 19 16 36
28 38 26 2 -2 1 -78 -3 -169z m-246 -94 c76 -56 70 -60 -81 -42 -112 13 -130
18 -125 33 4 12 103 56 127 56 8 1 44 -21 79 -47z m-1874 18 c22 -8 26 -15 21
-33 -4 -12 -12 -48 -17 -80 -9 -47 -17 -63 -48 -87 -83 -69 -251 -98 -330 -56
-41 22 -33 32 47 61 75 27 194 107 241 162 39 46 46 48 86 33z m2853 -27 l72
-17 0 -83 0 -83 -29 0 c-91 0 -271 39 -271 58 0 4 8 40 17 81 l17 73 61 -6
c33 -3 93 -13 133 -23z m-2645 -42 c138 -44 217 -67 264 -76 23 -5 42 -19 65
-51 17 -24 38 -46 47 -48 9 -2 29 -7 46 -11 16 -3 46 -22 67 -40 20 -19 54
-39 76 -44 21 -6 51 -23 67 -37 32 -29 51 -26 66 13 5 16 28 44 50 64 24 23
39 46 39 61 0 31 24 64 53 72 30 7 305 48 337 50 24 1 25 -1 26 -69 1 -46 9
-87 22 -120 l21 -50 1 38 c0 21 -5 47 -11 58 -15 29 -5 37 113 97 136 68 228
81 422 58 70 -8 130 -17 133 -19 8 -8 8 -52 0 -197 -9 -153 11 -439 33 -480
30 -55 -78 -268 -238 -470 -79 -100 -362 -388 -413 -421 -43 -27 -52 -30 -63
-18 -17 18 -67 150 -102 266 -76 255 -124 430 -124 451 0 12 -9 50 -20 83 -25
72 -20 95 26 117 41 19 88 88 104 152 9 38 19 51 54 73 48 30 79 88 89 165 7
59 -7 53 -21 -10 -17 -69 -45 -113 -92 -139 -35 -20 -42 -31 -62 -93 -31 -97
-82 -149 -164 -166 -68 -14 -135 -8 -183 16 -21 11 -39 14 -46 8 -7 -5 -31
-24 -55 -41 -38 -30 -50 -33 -109 -33 -59 0 -74 4 -121 34 -48 30 -60 34 -104
29 -50 -5 -52 -4 -94 41 -41 44 -45 46 -85 40 -56 -9 -57 -11 -4 -19 33 -5 48
-13 57 -31 17 -32 91 -67 123 -59 23 6 25 3 30 -37 11 -79 18 -180 32 -518 14
-318 14 -336 -2 -348 -14 -11 -70 -12 -263 -9 -135 2 -254 6 -265 9 -11 3 -56
9 -100 13 -44 4 -107 13 -140 21 -33 7 -112 25 -175 39 -161 37 -485 142 -506
166 -16 18 -16 21 4 70 42 100 332 557 360 567 6 2 25 -11 41 -28 26 -29 33
-32 67 -25 47 8 90 30 97 47 2 8 -4 52 -14 98 -24 111 -24 154 3 208 22 46
185 220 225 241 20 10 21 8 28 -52 9 -73 26 -110 62 -134 14 -9 32 -32 40 -51
28 -67 123 -152 193 -172 47 -13 44 6 -4 24 -62 24 -118 76 -155 145 -18 34
-41 66 -52 72 -23 12 -58 82 -59 115 0 42 32 125 61 159 26 29 31 44 32 88 2
51 18 87 39 87 5 0 64 -18 131 -39z m1444 -2 c37 -14 16 -26 -47 -29 -109 -4
-129 6 -62 34 37 16 58 15 109 -5z m-150 -60 c27 -10 27 -11 9 -25 -28 -20
-56 -18 -56 4 0 16 8 32 16 32 1 0 15 -5 31 -11z m-789 -39 c62 -6 145 -10
185 -8 l72 3 -3 -35 c-1 -24 -11 -43 -30 -60 -16 -14 -38 -40 -51 -58 -21 -30
-24 -31 -44 -17 -12 9 -40 20 -62 26 -23 6 -53 25 -71 44 -18 20 -47 38 -75
45 -52 14 -79 35 -79 63 0 15 5 18 23 14 12 -4 73 -11 135 -17z m2071 -45 c74
-14 136 -25 139 -25 8 0 -32 -638 -44 -695 -9 -41 -23 -56 -48 -50 -108 24
-246 58 -269 67 -33 13 -47 36 -47 77 0 68 14 73 122 42 37 -11 76 -17 87 -14
52 14 116 310 91 426 -14 67 -30 82 -100 95 -106 20 -125 35 -100 83 13 24 8
24 169 -6z m-2919 -86 c0 -15 -212 -229 -226 -229 -8 0 -14 1 -14 3 0 2 -7 50
-15 106 -10 66 -12 107 -6 115 12 14 261 19 261 5z m2835 -5 c22 -4 52 -13 68
-21 26 -13 27 -16 27 -93 0 -103 -25 -261 -52 -322 -15 -36 -26 -48 -42 -48
-35 0 -159 39 -168 52 -9 13 -8 30 13 176 l11 82 55 0 c63 0 64 16 1 26 l-41
7 7 66 c6 71 24 96 61 87 11 -2 38 -8 60 -12z m-3970 -19 c48 -47 20 -125 -45
-125 -65 0 -93 78 -45 125 31 32 59 32 90 0z m3615 -295 c0 -140 -1 -150 -19
-150 -32 0 -44 26 -37 76 8 58 46 224 52 224 2 0 4 -67 4 -150z m-2999 -142
c18 -50 28 -63 56 -74 18 -8 33 -17 33 -20 0 -3 -26 -44 -57 -91 -32 -47 -62
-92 -68 -101 -5 -10 -27 -42 -47 -73 -20 -31 -53 -88 -72 -125 -69 -135 -95
-145 -95 -39 0 36 -7 89 -15 118 -15 53 -78 148 -116 174 -30 21 -25 31 22 44
24 6 61 20 83 31 58 30 159 121 181 165 45 89 59 88 95 -9z m3001 -61 c4 -6
10 -33 13 -59 10 -72 55 -94 132 -67 25 8 55 5 159 -21 202 -49 196 -46 188
-83 -21 -96 -174 -446 -250 -573 -58 -97 -205 -289 -220 -289 -6 0 -49 43 -95
95 -82 94 -136 153 -278 302 l-74 77 14 33 c7 18 30 65 50 103 20 39 54 111
74 160 20 50 45 107 56 128 10 21 31 74 46 117 26 77 28 80 58 80 17 0 40 6
50 14 21 15 63 6 77 -17z m-1369 -16 c70 -23 62 -56 -42 -186 -66 -83 -70 -86
-91 -75 -34 18 -214 209 -198 210 1 1 33 2 69 3 57 2 74 7 125 39 34 22 65 35
74 31 8 -3 36 -13 63 -22z m-356 -212 c6 -101 16 -269 23 -374 6 -104 16 -224
21 -265 30 -238 40 -308 59 -430 12 -74 27 -175 35 -225 7 -49 16 -97 19 -105
12 -31 47 -301 61 -470 9 -105 15 -305 15 -502 l0 -326 -45 -17 c-50 -20 -79
-14 -71 12 8 26 24 280 32 498 5 143 2 236 -10 375 -26 287 -92 796 -125 965
-32 162 -49 350 -61 670 -6 165 -12 321 -15 346 -5 55 1 64 29 45 19 -12 22
-29 33 -197z m526 159 c9 -24 23 -70 32 -103 9 -33 27 -103 41 -155 92 -348
208 -676 262 -745 10 -12 47 -47 83 -77 37 -32 76 -76 92 -106 25 -47 159
-432 229 -657 26 -87 117 -358 236 -707 l36 -108 -39 -40 c-21 -22 -44 -40
-51 -40 -6 0 -21 19 -32 43 -22 47 -99 287 -136 423 -13 49 -59 208 -101 354
-84 290 -129 450 -152 550 -40 170 -33 158 -137 237 -91 70 -95 75 -122 145
-15 40 -47 123 -71 185 -24 61 -52 138 -62 170 -11 32 -32 90 -46 128 -68 179
-127 386 -141 493 l-7 52 35 0 c32 0 37 -4 51 -42z m-87 -126 c20 -73 32 -107
54 -157 45 -101 49 -135 16 -135 -35 0 -236 149 -236 174 0 11 84 132 117 168
22 24 30 15 49 -50z m-313 -29 c48 -48 87 -90 87 -95 0 -22 -134 -198 -157
-205 -7 -3 -13 25 -17 89 -10 169 -13 298 -6 298 3 0 45 -39 93 -87z m-2130
-23 c33 -26 41 -53 26 -82 -18 -33 -40 -47 -74 -48 -38 0 -48 7 -69 48 -17 32
-13 52 17 90 15 19 71 14 100 -8z m2353 -160 c54 -39 114 -80 132 -91 17 -12
32 -28 32 -37 0 -10 -23 -46 -51 -82 -27 -36 -68 -89 -90 -117 -22 -29 -45
-53 -52 -53 -13 0 -56 27 -147 90 -52 37 -120 100 -120 112 0 15 179 248 190
248 3 0 51 -32 106 -70z m955 -119 c-41 -81 -64 -99 -76 -61 -5 15 8 36 51 85
32 35 60 63 62 61 2 -2 -15 -40 -37 -85z m-726 -68 c64 -180 125 -369 125
-388 0 -13 -4 -26 -9 -30 -19 -11 -341 177 -341 199 0 22 180 266 196 266 7 0
20 -21 29 -47z m639 -38 c16 -25 16 -28 -14 -80 -34 -59 -50 -63 -75 -14 -8
15 -15 30 -15 33 0 9 72 86 80 86 4 0 15 -11 24 -25z m-924 -170 c10 -11 8
-21 -11 -47 -52 -74 -177 -214 -185 -206 -18 18 -44 385 -28 401 6 6 204 -124
224 -148z m1111 37 c169 -174 233 -244 282 -303 l45 -57 -32 -33 c-59 -63
-231 -214 -281 -249 -27 -19 -52 -36 -55 -39 -3 -4 -14 -11 -25 -18 -11 -7
-40 -24 -64 -39 -24 -14 -58 -27 -75 -28 -31 -1 -31 -1 -71 119 -55 162 -64
177 -166 275 -83 80 -128 148 -129 192 0 9 36 45 83 82 45 35 98 80 116 100
19 20 42 36 51 36 16 0 60 -51 60 -70 0 -15 -96 -147 -152 -208 -53 -59 -62
-86 -25 -77 19 5 32 -4 73 -52 28 -32 77 -101 109 -153 32 -52 64 -105 72
-118 13 -21 15 -21 41 -8 81 44 252 224 252 266 0 18 -28 54 -185 245 -44 53
-88 107 -99 120 -18 23 -18 24 10 74 16 28 36 51 45 51 8 0 62 -48 120 -108z
m-2815 36 c54 -21 54 -21 54 -64 0 -24 -9 -76 -20 -116 -16 -60 -52 -262 -86
-490 -7 -46 -17 -47 -105 -14 -176 67 -206 89 -186 133 10 22 15 23 66 17 51
-5 58 -4 79 18 14 16 27 50 36 94 8 38 28 122 45 188 29 107 33 141 15 123 -4
-3 -26 -83 -51 -177 -51 -199 -58 -219 -77 -226 -21 -8 -86 23 -86 41 0 18 72
245 100 315 10 25 28 71 40 103 38 97 53 102 176 55z m214 -68 c90 -29 364
-92 460 -106 80 -12 82 -15 75 -102 -4 -42 -11 -104 -15 -137 -5 -33 -14 -130
-20 -215 -6 -85 -13 -174 -16 -197 -7 -52 -5 -51 -171 -22 -65 11 -156 26
-203 34 -96 16 -299 68 -331 86 -20 10 -21 16 -15 93 15 195 102 596 129 596
7 0 55 -14 107 -30z m2405 -6 c9 -4 44 -43 77 -87 34 -44 89 -112 122 -151 98
-114 92 -101 60 -143 -53 -71 -199 -203 -224 -203 -4 0 -36 48 -70 108 -35 59
-81 127 -102 151 -21 25 -37 52 -36 60 4 21 66 61 93 61 16 0 34 -18 65 -62
24 -35 45 -65 47 -67 2 -2 6 -2 9 1 16 16 -96 168 -124 168 -9 0 -28 -9 -42
-20 -30 -24 -44 -25 -36 -4 6 15 137 194 142 194 1 0 10 -3 19 -6z m-775 -90
c47 -31 110 -68 140 -84 68 -35 140 -100 140 -127 0 -11 -30 -59 -66 -107 -67
-86 -84 -97 -122 -76 -9 5 -84 43 -167 83 -180 90 -213 108 -219 124 -7 16
174 243 194 243 8 0 53 -25 100 -56z m-2088 14 c5 -15 -92 -301 -105 -310 -16
-10 -24 -2 -31 34 -4 18 -27 63 -51 100 -25 37 -45 74 -45 81 0 7 37 28 83 47
45 18 91 40 102 47 24 16 42 17 47 1z m1409 -61 l206 0 36 -221 c51 -312 71
-461 64 -480 -5 -13 -25 -16 -114 -16 -152 0 -410 19 -528 38 l-100 17 2 121
c2 67 10 186 18 265 9 79 19 173 22 209 3 36 11 69 17 73 6 4 47 5 91 1 44 -4
173 -7 286 -7z m-1998 -88 c29 -16 37 -28 37 -60 0 -81 -122 -117 -150 -44
-13 33 5 68 46 95 34 23 38 24 67 9z m2543 -166 c170 -83 234 -123 234 -145 0
-31 -313 -372 -334 -365 -11 4 -18 45 -66 368 -34 233 -34 229 -20 229 6 0 89
-39 186 -87z m503 31 c30 -19 42 -35 50 -67 16 -65 25 -203 14 -210 -14 -9
-74 26 -96 55 -14 19 -20 50 -24 136 -7 125 -6 127 56 86z m961 -47 c0 -54
-20 -83 -78 -110 -41 -19 -47 -27 -50 -57 -4 -43 -34 -85 -75 -106 -24 -13
-47 -15 -109 -9 -63 5 -79 4 -77 -7 5 -25 -13 -93 -32 -120 -24 -33 -89 -54
-118 -39 -16 9 -41 58 -41 82 0 5 36 27 80 49 109 55 205 124 330 240 159 146
170 151 170 77z m-1049 -9 c0 -13 4 -49 8 -81 4 -31 4 -62 1 -67 -7 -12 -91
22 -109 43 -12 15 2 39 58 100 30 33 41 34 42 5z m204 -26 c30 -22 48 -59 70
-148 13 -54 21 -102 17 -105 -4 -4 -26 2 -50 12 -52 22 -62 45 -69 162 -5 71
-3 87 8 87 8 0 19 -4 24 -8z m-261 -132 c36 -17 70 -38 75 -48 10 -19 41 -248
41 -303 0 -45 -43 -112 -116 -178 l-54 -50 -48 23 c-150 70 -324 160 -337 173
-14 14 -3 28 104 137 65 66 132 137 147 156 39 50 107 120 115 120 4 0 37 -14
73 -30z m167 -70 c6 0 21 -12 34 -26 23 -24 25 -36 25 -112 0 -84 0 -85 -36
-119 -20 -19 -40 -31 -44 -26 -8 9 -30 183 -30 241 0 43 7 55 28 47 7 -3 18
-5 23 -5z m124 -64 c19 -8 35 -20 35 -25 0 -15 -57 -77 -64 -70 -9 9 -20 109
-12 109 4 0 22 -7 41 -14z m84 -73 c18 -40 81 -258 81 -281 0 -30 -30 -57 -83
-77 -45 -16 -67 -38 -53 -52 3 -3 12 0 21 7 8 7 15 11 16 9 7 -27 5 -139 -2
-139 -24 0 -69 32 -73 53 -5 23 -26 324 -26 368 0 17 17 47 47 83 26 31 50 56
54 56 3 0 11 -12 18 -27z m-2974 -103 c3 -5 -11 -65 -31 -132 -58 -196 -94
-363 -104 -498 -12 -144 -28 -250 -42 -267 -5 -6 -24 -15 -41 -19 -48 -10
-163 -70 -205 -107 -20 -19 -54 -46 -74 -61 -32 -24 -39 -26 -44 -12 -6 14 10
90 41 201 8 28 29 104 46 170 37 137 99 325 123 370 9 17 16 38 16 48 0 10 11
39 24 65 13 26 31 71 40 99 24 72 40 88 121 112 39 11 77 25 85 31 19 12 37
13 45 0z m2830 -72 c12 -94 25 -225 25 -266 0 -41 -1 -43 -27 -40 -49 6 -65
44 -71 170 -5 112 -4 114 23 146 15 17 31 32 35 32 5 0 11 -19 15 -42z m-484
-117 c97 -49 175 -96 177 -104 2 -9 -12 -28 -30 -44 -18 -15 -58 -55 -88 -88
-82 -90 -173 -175 -187 -175 -22 0 -26 22 -39 189 -7 91 -16 199 -20 239 -4
46 -3 72 3 72 6 0 89 -40 184 -89z m393 -79 c6 -52 4 -63 -9 -68 -19 -8 -96
20 -127 46 l-23 19 70 68 69 67 7 -34 c4 -19 10 -63 13 -98z m349 -9 c15 -29
42 -133 36 -136 -2 -1 -26 -10 -54 -19 -41 -14 -52 -15 -63 -4 -34 34 -20 166
18 166 10 0 22 5 25 10 11 17 24 11 38 -17z m-447 -53 c112 -47 112 -47 119
-109 4 -31 13 -110 21 -176 20 -155 21 -210 4 -230 -28 -34 -44 -34 -115 -4
-39 17 -110 45 -160 64 -90 33 -238 106 -264 131 -11 10 10 38 129 168 78 86
149 160 158 166 26 15 55 12 108 -10z m197 -85 c10 -9 18 -44 22 -92 3 -43 10
-116 16 -161 8 -71 8 -88 -6 -108 -14 -22 -45 -33 -45 -16 0 4 -9 70 -20 147
-11 77 -20 163 -20 192 0 46 3 53 19 53 11 0 26 -7 34 -15z m97 -44 c7 -13 26
-22 58 -27 54 -7 152 -49 152 -64 0 -26 -202 -185 -224 -177 -17 7 -23 39 -32
175 -7 109 -6 112 14 112 12 0 26 -9 32 -19z m210 -10 c14 -27 -4 -36 -41 -21
-31 13 -37 25 -16 33 26 11 47 6 57 -12z m41 -133 c24 -44 49 -172 49 -249 0
-80 -10 -121 -36 -151 -14 -15 -19 -15 -50 -2 -22 9 -48 12 -70 8 -49 -9 -120
20 -139 56 -8 16 -15 55 -15 86 0 71 19 101 102 164 33 25 77 60 97 77 43 39
47 39 62 11z m-888 -109 c40 -17 95 -41 122 -54 28 -12 96 -42 152 -65 57 -23
108 -49 114 -56 16 -19 -4 -40 -115 -123 -133 -98 -352 -228 -364 -216 -9 8
-15 491 -7 522 7 29 13 29 98 -8z m587 -128 c14 -28 13 -91 -2 -91 -29 1 -42
19 -40 56 4 57 22 72 42 35z m394 -128 c13 -70 16 -122 9 -126 -5 -3 -36 7
-68 22 -33 15 -71 32 -85 38 -22 10 -20 10 16 6 53 -7 79 8 95 52 16 42 26 44
33 8z m-121 -110 c4 -2 7 -10 7 -17 0 -14 -47 -39 -60 -31 -9 6 -19 53 -12 60
5 4 49 -3 65 -12z m137 -89 c0 -19 -16 -18 -24 2 -11 27 -7 37 9 24 8 -7 15
-19 15 -26z"/>
<path d="M1430 6374 c0 -8 5 -12 10 -9 6 3 10 10 10 16 0 5 -4 9 -10 9 -5 0
-10 -7 -10 -16z"/>
<path d="M1897 5363 c-11 -18 -29 -171 -28 -247 0 -106 33 -294 71 -409 29
-87 88 -187 110 -187 17 0 11 21 -18 59 -95 124 -153 421 -132 670 10 107 9
134 -3 114z"/>
<path d="M2981 8264 c0 -11 3 -14 6 -6 3 7 2 16 -1 19 -3 4 -6 -2 -5 -13z"/>
<path d="M4311 7414 c0 -11 3 -14 6 -6 3 7 2 16 -1 19 -3 4 -6 -2 -5 -13z"/>
<path d="M3747 6790 c-3 -8 -13 -73 -22 -145 -8 -71 -17 -140 -19 -152 -5 -37
11 -26 18 12 11 57 22 40 32 -47 5 -50 14 -83 22 -86 9 -3 10 3 4 20 -5 12
-10 75 -11 138 -4 146 -16 279 -24 260z"/>
<path d="M4006 6379 c-54 -4 -103 -10 -110 -13 -14 -8 211 3 289 14 l60 7 -70
0 c-38 0 -114 -3 -169 -8z"/>
<path d="M3968 4801 c-88 -13 -62 -21 68 -21 77 0 123 4 114 9 -22 13 -129 20
-182 12z"/>
<path d="M3868 4773 c6 -2 18 -2 25 0 6 3 1 5 -13 5 -14 0 -19 -2 -12 -5z"/>
<path d="M3925 4200 c-7 -43 1 -96 16 -105 5 -4 9 26 9 69 0 81 -14 101 -25
36z"/>
<path d="M5410 3736 c0 -3 55 -37 123 -77 130 -77 154 -94 168 -120 9 -18 -56
-162 -134 -293 -42 -71 -115 -156 -134 -156 -14 0 -243 199 -243 212 0 5 16
36 36 67 20 31 50 81 68 111 20 35 39 56 52 58 12 2 49 -13 83 -33 34 -20 67
-35 74 -32 12 4 -91 74 -135 91 -35 13 -56 -5 -103 -89 -19 -35 -51 -82 -70
-105 -19 -23 -35 -52 -35 -64 0 -15 28 -46 92 -102 50 -43 105 -91 122 -106
67 -61 128 -17 233 168 105 187 139 262 127 282 -26 42 -324 215 -324 188z"/>
<path d="M2483 2949 c-23 -29 -109 -337 -115 -414 -3 -36 -1 -39 24 -41 15 -2
60 -12 100 -23 40 -11 122 -29 182 -41 60 -11 119 -23 131 -26 32 -8 50 43 70
201 9 72 20 146 25 165 6 19 10 51 10 70 -1 71 -21 1 -50 -176 -36 -215 -35
-212 -67 -220 -44 -11 -369 58 -389 82 -8 10 -5 39 12 113 35 147 73 274 87
288 9 10 29 9 92 -2 143 -26 140 -24 143 -84 2 -28 -4 -90 -13 -138 -9 -47
-14 -88 -10 -91 18 -19 44 74 52 194 7 102 -3 116 -103 134 -123 21 -169 24
-181 9z"/>
<path d="M3201 2837 c-6 -8 -16 -104 -23 -224 -16 -282 -34 -259 204 -268 101
-4 193 -6 203 -4 17 4 20 14 23 74 5 109 -9 435 -19 435 -5 0 -9 -106 -9 -240
l0 -240 -192 0 -191 0 6 222 c4 122 10 224 12 227 9 8 197 -27 209 -39 5 -5
12 -66 14 -135 3 -69 8 -125 13 -125 12 0 11 261 0 279 -5 8 -54 21 -117 32
-130 22 -119 22 -133 6z"/>
<path d="M9962 5294 c-35 -34 -45 -48 -26 -36 17 12 37 28 44 37 8 9 26 23 41
30 23 13 28 12 42 -3 8 -9 17 -26 20 -37 3 -15 5 -16 6 -3 0 9 -3 28 -9 42
-16 44 -53 34 -118 -30z"/>
<path d="M8948 5303 c-70 -63 -113 -126 -158 -229 -23 -55 -49 -109 -57 -122
l-14 -23 -79 75 c-58 55 -88 77 -117 83 -54 11 -185 10 -205 -2 -12 -7 15 -10
90 -10 83 0 114 -4 140 -18 36 -20 138 -117 163 -156 15 -24 17 -22 92 132 93
192 162 286 212 287 17 0 17 2 5 10 -23 15 -27 13 -72 -27z"/>
<path d="M9060 5296 c0 -2 11 -24 25 -47 30 -53 33 -44 5 11 -18 35 -30 49
-30 36z"/>
<path d="M10051 5203 c-10 -26 -10 -27 4 -9 8 11 15 23 15 28 0 15 -7 8 -19
-19z"/>
<path d="M9114 5180 c26 -136 31 -199 31 -373 0 -108 1 -197 2 -197 1 0 22 10
47 21 93 46 99 -11 13 -144 -48 -76 -50 -80 -32 -93 10 -8 26 -14 36 -14 51 0
255 -185 293 -265 33 -69 14 -131 -48 -155 -41 -15 -158 -22 -224 -12 -112 16
-135 -2 -91 -70 12 -18 18 -24 14 -13 -26 71 -18 77 88 64 162 -20 307 36 307
119 0 36 -26 89 -71 145 -38 48 -39 52 -22 64 21 16 74 32 163 48 44 9 55 13
33 14 -18 0 -76 -10 -129 -24 -53 -14 -101 -22 -107 -18 -7 4 -39 28 -72 54
-33 25 -74 54 -92 63 -17 9 -34 20 -38 26 -3 5 12 44 35 85 24 46 40 90 40
110 0 39 -25 69 -49 60 -9 -4 -27 -9 -41 -11 l-25 -5 -2 195 -2 196 43 29 c38
27 49 29 107 26 l64 -4 -65 10 c-59 10 -69 9 -107 -11 -48 -25 -73 -21 -74 12
0 13 -7 39 -15 58 -9 23 -13 27 -10 10z"/>
<path d="M9457 5138 c-60 -38 -54 -50 7 -14 53 31 58 31 113 9 34 -14 41 -22
37 -36 -5 -16 -2 -18 18 -12 39 13 108 44 108 49 0 3 -15 -1 -34 -9 -33 -14
-39 -13 -108 15 -40 17 -77 30 -83 29 -5 0 -32 -14 -58 -31z"/>
<path d="M9775 5160 c-3 -6 1 -7 9 -4 18 7 21 14 7 14 -6 0 -13 -4 -16 -10z"/>
<path d="M9865 4988 c-38 -33 -73 -69 -77 -78 -4 -10 -12 -55 -18 -99 -10 -66
-20 -93 -51 -141 -28 -44 -45 -60 -61 -60 -22 -1 -22 -1 -4 -15 10 -8 49 -17
86 -21 75 -7 79 -9 103 -44 37 -53 13 -144 -46 -180 -34 -21 -24 -27 16 -9 31
14 54 54 62 111 6 40 3 54 -21 98 -24 45 -26 54 -15 72 13 21 13 21 -22 -1
-35 -21 -63 -26 -91 -15 -14 5 -12 14 14 60 18 30 35 80 41 116 23 137 51 154
82 48 11 -36 21 -60 24 -55 2 6 -6 38 -17 70 -12 33 -24 68 -27 77 -3 11 12
35 47 73 29 30 51 55 49 55 -2 0 -35 -28 -74 -62z"/>
<path d="M8103 4993 c-40 -21 -70 -39 -69 -41 2 -2 39 15 82 37 44 22 75 40
69 40 -5 0 -42 -16 -82 -36z"/>
<path d="M7915 4895 c-177 -85 -780 -249 -827 -224 -10 6 -18 21 -18 37 -1 70
-108 192 -168 192 -15 0 -52 -12 -82 -26 -30 -14 -64 -23 -75 -20 -19 5 -20 2
-17 -29 2 -19 7 -35 11 -35 3 0 19 14 36 31 64 69 135 77 196 22 51 -46 65
-73 80 -156 11 -57 10 -71 -5 -111 -16 -42 -95 -126 -117 -126 -5 0 -9 -7 -9
-15 0 -8 4 -15 10 -15 5 0 21 -18 36 -39 23 -36 25 -43 14 -75 -6 -19 -18 -37
-27 -40 -13 -5 -4 -17 39 -56 80 -71 103 -127 103 -255 0 -95 -2 -103 -35
-164 -39 -73 -103 -130 -177 -157 -66 -24 -68 -28 -39 -57 34 -34 37 -114 6
-142 -28 -25 -25 -41 14 -86 69 -81 95 -220 60 -323 -19 -54 -71 -111 -120
-132 -44 -19 -48 -27 -24 -66 26 -43 27 -114 3 -122 -10 -4 -29 -15 -43 -25
l-24 -19 36 -59 c59 -94 80 -173 76 -274 -6 -170 -85 -258 -230 -259 -38 0
-68 -3 -68 -6 0 -3 5 -25 11 -49 19 -74 -24 -131 -113 -150 l-27 -5 1 -108 c1
-116 -7 -146 -63 -234 -39 -60 -127 -127 -198 -149 l-56 -17 3 -46 c3 -43 1
-50 -36 -86 -22 -22 -49 -40 -61 -40 -32 0 -35 -21 -11 -76 20 -46 20 -47 17
-14 -6 48 -1 57 42 85 42 26 71 77 71 123 0 38 16 51 71 58 41 5 45 3 66 -28
41 -62 145 -280 187 -393 15 -38 44 -107 66 -153 22 -45 40 -87 40 -93 0 -5
15 -42 34 -82 59 -128 150 -397 175 -522 16 -80 17 -80 50 -83 l33 -3 -6 78
c-17 195 -32 270 -52 250 -4 -3 1 -64 10 -134 19 -148 19 -153 7 -153 -4 0
-16 28 -25 63 -36 132 -104 335 -156 462 -15 39 -36 90 -45 115 -14 38 -41
103 -129 305 -7 17 -53 112 -101 212 l-89 182 51 54 c28 29 57 66 66 83 8 16
24 38 36 48 20 19 21 18 74 -23 67 -51 253 -234 328 -321 158 -185 278 -359
408 -590 113 -202 181 -328 181 -335 0 -3 9 -25 19 -48 36 -79 91 -221 91
-234 0 -7 11 -13 25 -13 24 0 25 1 11 23 -8 12 -28 56 -44 97 -36 90 -138 299
-173 355 -14 22 -49 84 -77 137 -88 167 -157 272 -342 518 -31 41 -88 107
-126 147 -38 39 -105 110 -148 158 -44 47 -106 105 -137 128 -54 40 -58 45
-64 95 -4 29 -3 82 0 117 6 54 11 65 29 71 30 9 84 51 98 77 7 12 12 44 13 72
l0 50 65 8 c116 14 190 88 222 220 15 59 16 82 7 127 -12 63 -50 157 -87 213
l-25 38 36 33 c40 37 47 73 26 135 -11 32 -11 34 54 93 48 42 70 71 78 99 7
21 17 44 24 49 6 5 171 14 366 21 336 10 401 14 614 37 250 28 738 141 830
192 80 46 127 140 154 309 13 83 23 92 57 52 22 -27 104 -80 104 -68 0 2 -27
25 -59 51 -44 34 -67 61 -86 102 -14 30 -31 54 -37 52 -6 -2 -12 -45 -15 -103
-8 -212 -42 -321 -116 -367 -49 -31 -187 -72 -407 -122 -300 -68 -736 -113
-1130 -118 l-265 -3 -7 68 c-8 68 -59 189 -92 216 -14 12 -13 16 9 45 29 38
32 83 9 127 -21 41 -14 54 40 78 57 25 141 108 166 164 10 23 24 70 30 105 9
53 8 72 -6 125 -10 34 -18 77 -18 96 l-1 34 215 69 c313 101 446 152 620 238
162 81 342 148 423 157 50 6 69 19 43 29 -22 9 -145 -22 -246 -62 -47 -18
-168 -73 -270 -122 -143 -69 -239 -107 -420 -165 -401 -130 -388 -127 -449
-78 -32 27 -33 30 -23 61 18 51 14 80 -15 118 l-27 35 36 31 c45 39 77 87 89
131 6 19 19 39 29 45 11 6 73 22 137 35 201 41 245 52 353 88 212 71 354 129
395 161 30 23 18 19 -80 -29z"/>
<path d="M9891 4734 c0 -11 3 -14 6 -6 3 7 2 16 -1 19 -3 4 -6 -2 -5 -13z"/>
<path d="M8545 4640 c-4 -6 7 -10 27 -10 25 0 29 3 18 10 -19 13 -37 13 -45 0z"/>
<path d="M8785 3790 c-3 -5 1 -10 9 -10 8 0 18 5 21 10 3 6 -1 10 -9 10 -8 0
-18 -4 -21 -10z"/>
<path d="M8510 3599 c-70 -26 -225 -46 -415 -54 -295 -13 -826 -80 -872 -110
-31 -21 -18 -40 19 -26 34 13 346 61 397 61 22 0 64 6 93 14 29 7 127 19 218
25 459 32 520 40 600 81 69 35 47 40 -40 9z"/>
<path d="M6515 2731 c6 -11 115 -45 121 -38 4 4 -106 47 -120 47 -4 0 -5 -4
-1 -9z"/>
<path d="M2592 2188 c9 -13 40 -36 69 -51 55 -29 95 -32 170 -12 21 5 38 -1
78 -28 69 -48 137 -57 204 -27 l48 21 67 -45 c53 -36 76 -46 107 -46 l40 1
-52 18 c-29 10 -70 31 -93 47 -23 16 -47 33 -55 39 -10 6 -28 3 -60 -13 -76
-37 -138 -28 -203 29 -28 25 -41 30 -66 25 -117 -23 -145 -18 -223 40 -40 30
-50 30 -31 2z"/>
<path d="M3388 1993 c6 -2 18 -2 25 0 6 3 1 5 -13 5 -14 0 -19 -2 -12 -5z"/>
<path d="M1166 1428 c-86 -239 -162 -525 -227 -848 -17 -85 -44 -191 -60 -235
-29 -76 -119 -336 -119 -342 0 -2 7 -3 15 -3 9 0 22 25 36 72 28 95 48 133 61
120 6 -6 7 -16 0 -28 -11 -21 -21 -164 -12 -164 3 0 16 69 29 152 43 286 133
698 207 953 20 66 46 158 59 205 13 47 30 105 39 130 18 52 19 60 7 60 -5 0
-21 -33 -35 -72z"/>
<path d="M6503 1313 c3 -10 26 -77 51 -150 25 -73 63 -200 85 -283 39 -153 45
-169 58 -156 16 16 -128 526 -165 584 -17 26 -37 30 -29 5z"/>
<path d="M1700 1242 c0 -4 18 -17 40 -30 56 -32 132 -64 125 -52 -8 12 -165
91 -165 82z"/>
<path d="M1493 1158 c-49 -53 -106 -133 -157 -220 -15 -27 -30 -48 -34 -48 -6
0 -8 -87 -4 -162 4 -57 17 -25 17 40 0 56 6 79 36 142 38 79 133 226 177 273
14 15 23 27 20 27 -3 0 -27 -24 -55 -52z"/>
<path d="M1944 1116 c78 -49 286 -114 489 -151 143 -26 177 -37 177 -58 0 -7
-15 -58 -34 -114 -18 -57 -30 -103 -25 -103 4 0 24 51 44 113 20 61 40 115 43
118 4 4 52 1 107 -7 55 -8 134 -18 175 -24 113 -15 459 -22 595 -12 110 8 96
9 -170 11 -159 2 -297 4 -305 5 -8 2 -55 6 -105 10 -91 7 -212 24 -360 51 -44
8 -132 24 -195 35 -139 25 -308 78 -398 124 -15 7 -38 17 -52 20 -19 5 -15 1
14 -18z"/>
<path d="M1950 1013 c-7 -21 -28 -78 -47 -127 -52 -135 -32 -113 26 28 55 134
56 136 42 136 -5 0 -15 -17 -21 -37z"/>
<path d="M6940 869 c0 -6 34 -78 75 -159 77 -152 173 -414 201 -545 21 -100
44 -165 58 -165 9 0 1 43 -26 147 -21 80 -37 147 -35 149 12 12 88 -113 142
-233 26 -60 54 -88 39 -40 -11 38 -81 180 -116 235 -94 149 -119 192 -143 252
-43 105 -104 230 -147 303 -41 68 -48 76 -48 56z"/>
<path d="M1758 813 c-31 -36 -51 -92 -28 -78 13 8 53 85 47 91 -2 2 -11 -4
-19 -13z"/>
<path d="M3540 815 c0 -19 33 -146 36 -142 8 7 -17 137 -27 143 -5 3 -9 2 -9
-1z"/>
<path d="M4354 796 c-32 -27 -37 -71 -15 -124 19 -45 32 -40 15 6 -18 51 -17
76 5 103 18 22 19 22 45 6 39 -26 39 -99 0 -134 -32 -29 -16 -30 20 -2 22 18
26 28 26 74 0 46 -4 56 -26 74 -33 26 -37 26 -70 -3z"/>
<path d="M2682 709 c-28 -91 -38 -148 -23 -133 15 14 53 160 48 183 -2 9 -13
-14 -25 -50z"/>
<path d="M1637 671 c-20 -16 -57 -34 -82 -41 -25 -7 -45 -17 -45 -21 0 -14 22
-11 86 11 51 18 65 19 101 9 31 -8 50 -8 74 0 49 17 55 14 68 -30 18 -58 103
-144 159 -159 24 -6 51 -9 60 -7 10 3 7 5 -9 6 -33 1 -107 49 -142 91 -37 44
-53 77 -62 128 -4 23 -9 42 -12 42 -3 0 -21 -13 -40 -30 -18 -17 -45 -30 -59
-30 -19 0 -29 7 -37 30 -6 17 -14 30 -17 30 -3 0 -22 -13 -43 -29z"/>
<path d="M6000 681 c0 -5 5 -13 10 -16 6 -3 10 -2 10 4 0 5 -4 13 -10 16 -5 3
-10 2 -10 -4z"/>
<path d="M3410 606 c0 -36 5 -68 10 -71 6 -4 10 20 10 64 0 41 -4 71 -10 71
-6 0 -10 -28 -10 -64z"/>
<path d="M3581 645 c0 -11 4 -27 9 -35 9 -13 10 -13 9 0 0 8 -4 24 -9 35 l-9
20 0 -20z"/>
<path d="M6042 584 c4 -10 24 -66 46 -124 21 -58 60 -163 86 -235 46 -123 73
-182 82 -173 2 2 -15 49 -38 104 -22 54 -46 119 -54 144 -17 58 -59 173 -84
227 -11 24 -20 47 -20 52 0 6 -5 13 -12 17 -7 5 -9 1 -6 -12z"/>
<path d="M6720 570 c0 -5 5 -10 10 -10 6 0 10 5 10 10 0 6 -4 10 -10 10 -5 0
-10 -4 -10 -10z"/>
<path d="M1796 559 c-20 -69 -108 -293 -143 -368 -44 -92 -73 -165 -73 -182 0
-5 6 -9 14 -9 7 0 24 26 37 57 12 32 36 85 51 118 38 78 90 211 119 303 17 55
20 75 11 84 -9 9 -12 8 -16 -3z"/>
<path d="M6750 446 c0 -9 5 -16 10 -16 6 0 10 4 10 9 0 6 -4 13 -10 16 -5 3
-10 -1 -10 -9z"/>
<path d="M2416 393 c-12 -79 -27 -346 -22 -369 13 -50 23 -21 29 79 19 309 19
327 9 327 -6 0 -13 -17 -16 -37z"/>
<path d="M3652 55 c15 -8 32 -24 38 -35 14 -26 26 -25 33 0 6 22 36 27 55 8 6
-6 14 -9 17 -6 13 13 -47 37 -106 43 -62 6 -63 5 -37 -10z"/>
<path d="M4410 29 c-16 -28 -5 -36 19 -15 20 18 61 15 61 -5 0 -5 7 -9 15 -9
21 0 8 26 -21 39 -37 17 -62 13 -74 -10z"/>
<path d="M6318 3 c7 -3 16 -2 19 1 4 3 -2 6 -13 5 -11 0 -14 -3 -6 -6z"/>
</g>
</svg>